PathFileType	4	(X/Y/Z)	./resultDataOpenSim/trcMotMarkerGrf/sub06/qtm-13-03.trc
DataRate	CameraRate	NumFrames	NumMarkers	Units	OrigDataRate	OrigDataStartFrame	OrigNumFrames
250.000000	250.000000	6	24	m	250.000000	342	547
Frame#	Time	L.Toe.Tip			R.Toe.Tip			L.Ankle.Lat			R.Ankle.Lat			L.Ankle.Med			R.Ankle.Med			L.Heel			R.Heel			L.Knee.Lat			R.Knee.Lat			L.Knee.Med			R.Knee.Med			L.Thigh.Upper			R.Thigh.Upper			L.ASIS			R.ASIS			V.Sacral			L.Acromium			R.Acromium			C7			L.Elbow			R.Elbow			L.Wrist.Lat			R.Wrist.Lat
		X1	Y1	Z1	X2	Y2	Z2	X3	Y3	Z3	X4	Y4	Z4	X5	Y5	Z5	X6	Y6	Z6	X7	Y7	Z7	X8	Y8	Z8	X9	Y9	Z9	X10	Y10	Z10	X11	Y11	Z11	X12	Y12	Z12	X13	Y13	Z13	X14	Y14	Z14	X15	Y15	Z15	X16	Y16	Z16	X17	Y17	Z17	X18	Y18	Z18	X19	Y19	Z19	X20	Y20	Z20	X21	Y21	Z21	X22	Y22	Z22	X23	Y23	Z23	X24	Y24	Z24

342	1.364	0.6213101	0.10466495	-0.086817295	0.93230234	0.03547943	0.073078773	0.59939184	0.23268767	-0.11416498	0.79686294	0.062412814	0.098361086	0.62052399	0.24014582	-0.031894406	0.81465447	0.080270903	0.0099569545	0.54349623	0.28119264	-0.062614541	0.73964732	0.041300637	0.042152247	0.92066735	0.42058518	-0.15128662	0.90340157	0.43689078	0.12317941	0.91976009	0.41536128	-0.023343525	0.85434753	0.42923312	0.0032579685	0.77231521	0.79180221	-0.14852364	0.81145724	0.80381422	0.196402	0.84431214	0.84750518	-0.11667766	0.8911476	0.86378417	0.12488361	0.68376811	0.92251955	0.039375941	0.79973691	1.339833	-0.15961224	0.82916654	1.3104644	0.19955629	0.7376643	1.3655069	0.027529464	0.79471087	1.0124884	-0.21932565	0.77370238	0.9953052	0.27367102	1.0011035	0.87309114	-0.20639941	0.97431809	0.85068978	0.28702767
343	1.368	0.63793058	0.10434109	-0.087497861	0.93232677	0.035482127	0.073043477	0.61298503	0.23192929	-0.11412639	0.79682682	0.062613701	0.098401252	0.63417327	0.23927234	-0.031676813	0.81465165	0.080449952	0.0099696082	0.556165	0.27903256	-0.062226227	0.73972262	0.041500386	0.04206013	0.93152982	0.42455153	-0.15098732	0.90380036	0.43693876	0.12275657	0.93070778	0.419401	-0.022774204	0.85411337	0.4296836	0.002925208	0.77936164	0.79443755	-0.14921906	0.81566035	0.80535342	0.19644539	0.850569	0.85010002	-0.11640116	0.89648324	0.8652795	0.12497406	0.6899152	0.92408338	0.038798089	0.80490725	1.3416448	-0.1596295	0.83457587	1.3126085	0.19944251	0.74289227	1.3671893	0.027514273	0.79706068	1.0147707	-0.21970355	0.78176649	0.99676923	0.27374534	1.0004873	0.87123807	-0.20856973	0.98537387	0.85605515	0.28389774
344	1.372	0.65484637	0.10391558	-0.088294695	0.9323592	0.035486476	0.073008917	0.62664376	0.23092365	-0.11405918	0.79688702	0.062824609	0.098405032	0.64785165	0.23817524	-0.031394248	0.81464567	0.080646965	0.010013344	0.56885367	0.27658479	-0.061799801	0.73983715	0.041728354	0.041938273	0.94218216	0.42850276	-0.15071016	0.90435575	0.4370391	0.12251009	0.94150282	0.4234122	-0.022120705	0.85417548	0.43012614	0.0026128334	0.78641387	0.79707599	-0.14974254	0.81989848	0.80683482	0.19644566	0.85697098	0.8526748	-0.11609438	0.90187883	0.86668362	0.12501473	0.69599344	0.92561146	0.038214051	0.81007042	1.3433881	-0.15964893	0.8399764	1.3146993	0.19932353	0.74811535	1.3688104	0.027506813	0.79931716	1.0170022	-0.22004662	0.7898112	0.99822427	0.27380328	0.99980285	0.86945391	-0.21075596	0.99629858	0.86147684	0.2807954
345	1.376	0.67197356	0.1033755	-0.089156248	0.9324026	0.035494055	0.072976338	0.64036128	0.22966265	-0.11394548	0.79701675	0.063024385	0.098378609	0.66162031	0.23687865	-0.031132081	0.81464112	0.0808586	0.010080644	0.58160506	0.27383573	-0.061362925	0.73998737	0.041964059	0.041807329	0.95267106	0.43243445	-0.15044272	0.90507952	0.43720323	0.12245115	0.952169	0.42742843	-0.021442738	0.85447329	0.43044932	0.0023527457	0.7934818	0.79969529	-0.15010033	0.82418507	0.8082472	0.19639887	0.86352702	0.8552356	-0.11572096	0.90736989	0.86800284	0.12499953	0.7018464	0.92713116	0.037689006	0.81523057	1.3450634	-0.15967206	0.84536743	1.3167368	0.19919712	0.75333708	1.3703682	0.027501446	0.80152832	1.0191886	-0.22024115	0.79779076	0.99966884	0.27386558	0.99905738	0.86773607	-0.21295109	1.0071396	0.86697006	0.27770615
346	1.38	0.68914405	0.1026882	-0.089991292	0.93245737	0.035504957	0.072947843	0.65414393	0.2281594	-0.11379389	0.79717442	0.063208338	0.098338099	0.67559983	0.23539215	-0.03096743	0.81466289	0.081071492	0.010134033	0.59447004	0.27076897	-0.060935174	0.74016703	0.042199963	0.041679387	0.96311619	0.43632946	-0.15013554	0.90583105	0.4373906	0.12245922	0.96277427	0.43146002	-0.020863029	0.85492703	0.43065072	0.0021233192	0.80054657	0.80225807	-0.15042555	0.82853302	0.80957953	0.19630131	0.87010485	0.85773212	-0.11534705	0.91293326	0.86923645	0.124939	0.70748811	0.92862705	0.037237732	0.82039091	1.3466688	-0.15970384	0.85074719	1.3187224	0.19906226	0.75856153	1.3718558	0.027494081	0.80374631	1.0213473	-0.22027575	0.80570331	1.0010986	0.27395096	0.99826056	0.86608692	-0.21514411	1.0179134	0.87253347	0.27461282
347	1.384	0.70622745	0.10183821	-0.090724892	0.93252003	0.035517022	0.072927216	0.66801796	0.2264347	-0.11362669	0.79733787	0.063389564	0.098295367	0.68981418	0.23372681	-0.030902512	0.81473801	0.081277271	0.010141996	0.60746149	0.26739203	-0.060520646	0.74032353	0.042436938	0.041562301	0.973616	0.4401652	-0.14974346	0.90646971	0.43755582	0.12241334	0.97345963	0.43546608	-0.020441106	0.85545402	0.43081188	0.0018787653	0.80756118	0.8047437	-0.15090718	0.83295458	0.81082102	0.19614957	0.87661725	0.86012252	-0.11502174	0.91843616	0.87036248	0.1248759	0.71298474	0.93007344	0.036844327	0.82554879	1.3482032	-0.15974359	0.85611588	1.3206556	0.19892098	0.76378862	1.3732654	0.02748121	0.80598365	1.0234847	-0.22020694	0.81355734	1.0025031	0.27405359	0.99742257	0.86450743	-0.217324	1.0286302	0.8781496	0.2715055
